<svg xmlns="http://www.w3.org/2000/svg" viewBox="0 0 100 100"><circle cx="50" cy="50" r="50" fill="#D946EF"/><circle cx="50" cy="44" r="15" fill="#FFECD2"/><circle cx="43" cy="42" r="2" fill="#1a1a2e"/><circle cx="57" cy="42" r="2" fill="#1a1a2e"/><path d="M45 50 Q50 54 55 50" stroke="#E8846B" stroke-width="1.5" fill="none" stroke-linecap="round"/><path d="M30 30 Q34 10 50 8 Q66 10 70 30" fill="#7C2D12"/><path d="M30 30 Q26 42 30 54" stroke="#7C2D12" stroke-width="5" fill="none" stroke-linecap="round"/><path d="M70 30 Q74 42 70 54" stroke="#7C2D12" stroke-width="5" fill="none" stroke-linecap="round"/><circle cx="42" cy="47" r="1.5" fill="#E8846B" opacity="0.4"/><circle cx="47" cy="48" r="1" fill="#E8846B" opacity="0.4"/><circle cx="53" cy="48" r="1" fill="#E8846B" opacity="0.4"/><circle cx="58" cy="47" r="1.5" fill="#E8846B" opacity="0.4"/><path d="M22 85c0-16 12.5-29 28-29s28 13 28 29" fill="#E879F9"/></svg>